<svg width="100" height="100" viewBox="0 0 100 100" fill="none" xmlns="http://www.w3.org/2000/svg">
<path d="M43.5 42C43.5 43.9261 41.9769 45.7952 39.2308 47.2125C36.5103 48.6167 32.7172 49.5 28.5 49.5C24.2828 49.5 20.4897 48.6167 17.7692 47.2125C15.0231 45.7952 13.5 43.9261 13.5 42C13.5 40.0739 15.0231 38.2048 17.7692 36.7875C20.4897 35.3833 24.2828 34.5 28.5 34.5C32.7172 34.5 36.5103 35.3833 39.2308 36.7875C41.9769 38.2048 43.5 40.0739 43.5 42Z" stroke="black"/>
<path d="M86.5 42C86.5 43.9261 84.9769 45.7952 82.2308 47.2125C79.5103 48.6167 75.7172 49.5 71.5 49.5C67.2828 49.5 63.4897 48.6167 60.7692 47.2125C58.0231 45.7952 56.5 43.9261 56.5 42C56.5 40.0739 58.0231 38.2048 60.7692 36.7875C63.4897 35.3833 67.2828 34.5 71.5 34.5C75.7172 34.5 79.5103 35.3833 82.2308 36.7875C84.9769 38.2048 86.5 40.0739 86.5 42Z" stroke="black"/>
<circle cx="28" cy="42" r="6.5" stroke="black"/>
<circle cx="71" cy="42" r="6.5" stroke="black"/>
<path d="M30.5 40.6458C30.5 42.5788 28.933 44.1458 27 44.1458C25.067 44.1458 23.5 42.5788 23.5 40.6458C23.5 38.7128 25.067 37.1458 27 37.1458C28.933 37.1458 30.5 38.7128 30.5 40.6458Z" stroke="black"/>
<path d="M73.5 41C73.5 42.933 71.933 44.5 70 44.5C68.067 44.5 66.5 42.933 66.5 41C66.5 39.067 68.067 37.5 70 37.5C71.933 37.5 73.5 39.067 73.5 41Z" stroke="black"/>
</svg>
